<svg xmlns="http://www.w3.org/2000/svg" width="24" height="24" viewBox="0 0 24 24"><path fill-rule="evenodd" d="M11.9999782,2.98202211 C14.9371191,2.98202211 15.2849947,2.99320024 16.4449003,3.04612169 C17.5173894,3.09506967 18.0998311,3.27426907 18.4874851,3.42486816 C19.0008931,3.62441524 19.3673699,3.86282379 19.752273,4.24772696 C20.1371762,4.63263014 20.3755848,4.99910686 20.5750882,5.51251486 C20.7257309,5.9001689 20.9049303,6.48261059 20.9538783,7.55505606 C21.0067998,8.71500533 21.0179779,9.06288095 21.0179779,12.0000218 C21.0179779,14.9371627 21.0067998,15.2850383 20.9538783,16.4449439 C20.9049303,17.5174331 20.7257309,18.0998748 20.5750882,18.4875288 C20.3755848,19.0009368 20.1371762,19.3674135 19.752273,19.7523167 C19.3673699,20.1372199 19.0008931,20.3756284 18.4874851,20.5751318 C18.0998311,20.7257746 17.5173894,20.904974 16.4449003,20.953922 C15.2851693,21.0068434 14.9372937,21.0180216 11.9999782,21.0180216 C9.06266263,21.0180216 8.71478701,21.0068434 7.55505606,20.953922 C6.48256692,20.904974 5.90012524,20.7257746 5.51251486,20.5751318 C4.9990632,20.3756284 4.63258647,20.1372199 4.2476833,19.7523167 C3.86278012,19.3674135 3.62437158,19.0009368 3.42486816,18.4875288 C3.2742254,18.0998748 3.09502601,17.5174331 3.04607803,16.4449876 C2.99315657,15.2850383 2.98197844,14.9371627 2.98197844,12.0000218 C2.98197844,9.06288095 2.99315657,8.71500533 3.04607803,7.55509972 C3.09502601,6.48261059 3.2742254,5.9001689 3.42486816,5.51251486 C3.62437158,4.99910686 3.86278012,4.63263014 4.2476833,4.24772696 C4.63258647,3.86282379 4.9990632,3.62441524 5.51251486,3.42486816 C5.90012524,3.27426907 6.48256692,3.09506967 7.55501239,3.04612169 C8.71496166,2.99320024 9.06283728,2.98202211 11.9999782,2.98202211 M13.0959856,1.00079674 C15.1059519,1.00427072 15.5238429,1.02004655 16.5352423,1.06619549 C17.7061077,1.11964092 18.5056933,1.30556465 19.205418,1.57750759 C19.9287652,1.85862008 20.5422088,2.23474668 21.153731,2.84626896 C21.7652533,3.45779125 22.1413799,4.07123477 22.4224924,4.79458202 C22.6944353,5.49430674 22.8803591,6.29389232 22.9338045,7.46475773 C22.9799534,8.47615713 22.9957293,8.89404808 22.9992033,10.9040144 L22.9999537,11.7001567 L22.9999537,11.7001567 L23,12.0000218 C23,12.1030371 22.9999849,12.2029455 22.9999537,12.299887 L22.9992033,13.0960292 C22.9957293,15.1059956 22.9799534,15.5238865 22.9338045,16.5352859 C22.8803591,17.7061513 22.6944353,18.5057369 22.4224924,19.2054616 C22.1413799,19.9288089 21.7652533,20.5422524 21.153731,21.1537747 C20.5422088,21.765297 19.9287652,22.1414236 19.205418,22.4225361 C18.5056933,22.694479 17.7061077,22.8804027 16.5352423,22.9338482 C15.5238429,22.9799971 15.1059519,22.9957405 13.0959856,22.9992055 L12.2998433,22.9999538 L12.2998433,22.9999538 L11.9999782,23 C11.8969629,23 11.7970545,22.999985 11.7001132,22.9999538 L10.9039729,22.9992055 C8.8940148,22.9957405 8.4761511,22.9799971 7.46471407,22.9338482 C6.29384865,22.8804027 5.49426307,22.694479 4.79453836,22.4225361 C4.07119111,22.1414236 3.45774758,21.765297 2.8462253,21.1537747 C2.23470301,20.5422524 1.85857642,19.9287652 1.57746392,19.2054616 C1.30552099,18.5057369 1.11959725,17.7061513 1.06615182,16.5352859 C1.02000289,15.5238865 1.0042595,15.1059956 1.00079448,13.0960292 L1.00079448,10.9040144 C1.0042595,8.89404808 1.02000289,8.47615713 1.06615182,7.46475773 C1.11959725,6.29389232 1.30552099,5.49430674 1.57746392,4.79458202 C1.85857642,4.07123477 2.23470301,3.45779125 2.8462253,2.84626896 C3.45774758,2.23474668 4.07119111,1.85862008 4.79453836,1.57750759 C5.49426307,1.30556465 6.29384865,1.11964092 7.46471407,1.06619549 C8.4761511,1.02004655 8.8940148,1.00427072 10.9039729,1.00079674 Z M12.0218254,6.36904762 C8.89989627,6.36904762 6.36904762,8.89989627 6.36904762,12.0218254 C6.36904762,15.1437545 8.89989627,17.6746032 12.0218254,17.6746032 C15.1437545,17.6746032 17.6746032,15.1437545 17.6746032,12.0218254 C17.6746032,8.89989627 15.1437545,6.36904762 12.0218254,6.36904762 Z M12.0218254,8.35246845 C14.0483308,8.35246845 15.6911823,9.99531997 15.6911823,12.0218254 C15.6911823,14.0483308 14.0483308,15.6911823 12.0218254,15.6911823 C9.99531997,15.6911823 8.35246845,14.0483308 8.35246845,12.0218254 C8.35246845,9.99531997 9.99531997,8.35246845 12.0218254,8.35246845 Z M17.849228,4.79761905 C17.1259912,4.79761905 16.5396825,5.38388442 16.5396825,6.1071212 C16.5396825,6.83035798 17.1259912,7.41666667 17.849228,7.41666667 C18.5724648,7.41666667 19.1587302,6.83035798 19.1587302,6.1071212 C19.1587302,5.38388442 18.5724648,4.79761905 17.849228,4.79761905 Z"/></svg>