<svg xmlns="http://www.w3.org/2000/svg" width="24" height="24" viewBox="0 0 24 24"><path fill-rule="evenodd" d="M2.50446849,8.41311307 L6.40263405,8.41311307 L6.40263405,21.9987194 L2.50446849,21.9987194 L2.50446849,8.41311307 Z M4.35418627,6.71379178 L4.32596425,6.71379178 C2.91486359,6.71379178 2,5.67524651 2,4.36009732 C2,3.01805609 2.94190969,2 4.38123236,2 C5.81937912,2 6.70366886,3.01549494 6.73189087,4.3562556 C6.73189087,5.67140479 5.81937912,6.71379178 4.35418627,6.71379178 L4.35418627,6.71379178 Z M22,22 L17.5797272,22 L17.5797272,14.9683698 C17.5797272,13.1281854 16.8882879,11.8732232 15.3678269,11.8732232 C14.2048448,11.8732232 13.5580903,12.7196824 13.2570555,13.537969 C13.1441675,13.8299398 13.1618062,14.2384428 13.1618062,14.6482264 L13.1618062,22 L8.7826905,22 C8.7826905,22 8.83913452,9.54514022 8.7826905,8.41311307 L13.1618062,8.41311307 L13.1618062,10.5452683 C13.420508,9.61301063 14.8198495,8.28249456 17.0529163,8.28249456 C19.8233772,8.28249456 22,10.2379306 22,14.4446152 L22,22 L22,22 Z"/></svg>