<svg xmlns="http://www.w3.org/2000/svg" width="24" height="24" viewBox="0 0 24 24"><path fill-rule="evenodd" d="M4,8.89392296 C4,11.0677025 4.81817982,13.0012623 6.57181651,13.7219212 C6.85949019,13.8399482 7.11680981,13.7260869 7.20028347,13.4053312 C7.25823213,13.183857 7.39551525,12.6242702 7.45622337,12.3909933 C7.54038689,12.0744033 7.50796324,11.963319 7.27547875,11.686997 C6.77049761,11.0864479 6.44695095,10.3095526 6.44695095,9.20843019 C6.44695095,6.0154529 8.82077622,3.15642258 12.6295206,3.15642258 C16.0015804,3.15642258 17.8538678,5.23022626 17.8538678,7.99900065 C17.8538678,11.6425633 16.2513115,14.7182079 13.8733471,14.7182079 C12.5591544,14.7182079 11.5760968,13.6247225 11.8913651,12.2840748 C12.2687212,10.6830733 12.9992882,8.95501929 12.9992882,7.79974332 C12.9992882,6.76527144 12.4473962,5.90298012 11.3063596,5.90298012 C9.96388243,5.90298012 8.8842438,7.30055857 8.8842438,9.17302209 C8.8842438,10.3664833 9.28505533,11.1725382 9.28505533,11.1725382 C9.28505533,11.1725382 7.91084436,17.0329255 7.6700815,18.0590661 C7.19062536,20.1030159 7.59833554,22.6079652 7.63282879,22.8606818 C7.65283487,23.0106455 7.84392746,23.0467479 7.93085045,22.9335809 C8.05502614,22.7704259 9.65344321,20.7834068 10.1984365,18.7984705 C10.3515865,18.2361066 11.0807738,15.3250055 11.0807738,15.3250055 C11.5174583,16.1623029 12.7923287,16.8996244 14.1479133,16.8996244 C18.185003,16.8996244 20.9230769,13.196354 20.9230769,8.23922029 C20.9230769,4.49082187 17.7683245,1 12.9737632,1 C7.00850102,1 4,5.30451384 4,8.89392296 Z"/></svg>